# xmcd CD database file
#
# Track frame offsets:
#	150
#	36477
#	67684
#	95220
#	125479
#	146652
#	164788
#	169275
#	199043
#	228727
#	250671
#	276794
#
# Disc length: 4084 seconds
#
# Revision: 0
# Processed by: cddbd v1.5.2PL0 Copyright (c) Steve Scherf et al.
# Submitted via: CDex 1.51
#
DISCID=b70ff20c
DTITLE=ISMAEL DUEÑAS, MARC CUEVAS, OSCAR DOMENECH - MIRAGE
DYEAR=2005
DGENRE=Jazz
TTITLE0=GUILLERMODE
TTITLE1=MIRAGE DUB
TTITLE2=AUTUMN SADNESS
TTITLE3=SPRING MADNESS
TTITLE4=CASH WALTZ
TTITLE5=LUNCH TIME
TTITLE6=SÉ QUÈ VOLS DIR..PREÒ NO HI ESTIC D'ACORD
TTITLE7=KIND OF NIRVANA
TTITLE8=LIBERTINATGE
TTITLE9=CÀNTIC
TTITLE10=MIRAGE DUB 
TTITLE11=CA L'ARNÚS
EXTD=YEAR: 2005
EXTT0=
EXTT1=
EXTT2=
EXTT3=
EXTT4=
EXTT5=
EXTT6=
EXTT7=
EXTT8=
EXTT9=
EXTT10=
EXTT11=
PLAYORDER=
